<mxfile host="app.diagrams.net" agent="Mozilla/5.0 (Windows NT 10.0; Win64; x64) AppleWebKit/537.36 (KHTML, like Gecko) Chrome/135.0.0.0 Safari/537.36" version="26.2.5">
  <diagram name="usecase_diagram" id="DgZMRVtfknqifJo8CzZ5">
    <mxGraphModel dx="2911" dy="971" grid="1" gridSize="10" guides="1" tooltips="1" connect="1" arrows="1" fold="1" page="1" pageScale="1" pageWidth="827" pageHeight="1169" math="0" shadow="0">
      <root>
        <mxCell id="0" />
        <mxCell id="1" parent="0" />
        <mxCell id="dwLRcaL4dP4IxCvlZyWT-1" value="User" style="shape=umlActor;verticalLabelPosition=bottom;verticalAlign=top;html=1;outlineConnect=0;" parent="1" vertex="1">
          <mxGeometry x="70" y="200" width="60" height="110" as="geometry" />
        </mxCell>
        <mxCell id="dwLRcaL4dP4IxCvlZyWT-3" value="Pharmacy staff&lt;div&gt;&lt;br&gt;&lt;/div&gt;" style="shape=umlActor;verticalLabelPosition=bottom;verticalAlign=top;html=1;outlineConnect=0;" parent="1" vertex="1">
          <mxGeometry x="130" y="380" width="20" height="50" as="geometry" />
        </mxCell>
        <mxCell id="dwLRcaL4dP4IxCvlZyWT-8" value="Hospital staff" style="shape=umlActor;verticalLabelPosition=bottom;verticalAlign=top;html=1;outlineConnect=0;" parent="1" vertex="1">
          <mxGeometry x="50" y="460" width="20" height="50" as="geometry" />
        </mxCell>
        <mxCell id="dwLRcaL4dP4IxCvlZyWT-9" value="" style="endArrow=classic;html=1;rounded=0;exitX=0.5;exitY=0;exitDx=0;exitDy=0;exitPerimeter=0;" parent="1" source="dwLRcaL4dP4IxCvlZyWT-3" target="dwLRcaL4dP4IxCvlZyWT-1" edge="1">
          <mxGeometry width="50" height="50" relative="1" as="geometry">
            <mxPoint x="230" y="490" as="sourcePoint" />
            <mxPoint x="280" y="440" as="targetPoint" />
          </mxGeometry>
        </mxCell>
        <mxCell id="dwLRcaL4dP4IxCvlZyWT-10" value="" style="endArrow=classic;html=1;rounded=0;exitX=0.5;exitY=0;exitDx=0;exitDy=0;exitPerimeter=0;" parent="1" source="dwLRcaL4dP4IxCvlZyWT-8" target="dwLRcaL4dP4IxCvlZyWT-1" edge="1">
          <mxGeometry width="50" height="50" relative="1" as="geometry">
            <mxPoint x="230" y="490" as="sourcePoint" />
            <mxPoint x="280" y="440" as="targetPoint" />
          </mxGeometry>
        </mxCell>
        <mxCell id="dwLRcaL4dP4IxCvlZyWT-11" value="Login" style="ellipse;whiteSpace=wrap;html=1;" parent="1" vertex="1">
          <mxGeometry x="590" y="215" width="120" height="80" as="geometry" />
        </mxCell>
        <mxCell id="dwLRcaL4dP4IxCvlZyWT-12" value="" style="endArrow=none;html=1;rounded=0;entryX=0;entryY=0.5;entryDx=0;entryDy=0;" parent="1" source="dwLRcaL4dP4IxCvlZyWT-1" target="dwLRcaL4dP4IxCvlZyWT-11" edge="1">
          <mxGeometry width="50" height="50" relative="1" as="geometry">
            <mxPoint x="230" y="420" as="sourcePoint" />
            <mxPoint x="280" y="370" as="targetPoint" />
          </mxGeometry>
        </mxCell>
        <mxCell id="dwLRcaL4dP4IxCvlZyWT-13" value="Order medication" style="ellipse;whiteSpace=wrap;html=1;" parent="1" vertex="1">
          <mxGeometry x="383" y="370" width="90" height="60" as="geometry" />
        </mxCell>
        <mxCell id="dwLRcaL4dP4IxCvlZyWT-14" value="Resolve order" style="ellipse;whiteSpace=wrap;html=1;" parent="1" vertex="1">
          <mxGeometry x="404" y="450" width="96" height="60" as="geometry" />
        </mxCell>
        <mxCell id="dwLRcaL4dP4IxCvlZyWT-17" value="" style="endArrow=none;html=1;rounded=0;exitX=1;exitY=0.3333333333333333;exitDx=0;exitDy=0;exitPerimeter=0;entryX=0;entryY=0.5;entryDx=0;entryDy=0;" parent="1" source="dwLRcaL4dP4IxCvlZyWT-3" target="dwLRcaL4dP4IxCvlZyWT-13" edge="1">
          <mxGeometry width="50" height="50" relative="1" as="geometry">
            <mxPoint x="260" y="440" as="sourcePoint" />
            <mxPoint x="250" y="400" as="targetPoint" />
          </mxGeometry>
        </mxCell>
        <mxCell id="dwLRcaL4dP4IxCvlZyWT-18" value="" style="endArrow=none;html=1;rounded=0;entryX=0;entryY=0.5;entryDx=0;entryDy=0;" parent="1" source="dwLRcaL4dP4IxCvlZyWT-8" target="dwLRcaL4dP4IxCvlZyWT-14" edge="1">
          <mxGeometry width="50" height="50" relative="1" as="geometry">
            <mxPoint x="260" y="440" as="sourcePoint" />
            <mxPoint x="170" y="490" as="targetPoint" />
          </mxGeometry>
        </mxCell>
        <mxCell id="dwLRcaL4dP4IxCvlZyWT-19" value="" style="html=1;labelBackgroundColor=#ffffff;startArrow=none;startFill=0;startSize=6;endArrow=classic;endFill=1;endSize=6;jettySize=auto;orthogonalLoop=1;strokeWidth=1;dashed=1;fontSize=14;rounded=0;exitX=1;exitY=0.5;exitDx=0;exitDy=0;entryX=0.5;entryY=1;entryDx=0;entryDy=0;" parent="1" source="dwLRcaL4dP4IxCvlZyWT-13" target="dwLRcaL4dP4IxCvlZyWT-11" edge="1">
          <mxGeometry width="60" height="60" relative="1" as="geometry">
            <mxPoint x="260" y="440" as="sourcePoint" />
            <mxPoint x="320" y="380" as="targetPoint" />
            <Array as="points">
              <mxPoint x="650" y="400" />
            </Array>
          </mxGeometry>
        </mxCell>
        <mxCell id="dwLRcaL4dP4IxCvlZyWT-20" value="" style="html=1;labelBackgroundColor=#ffffff;startArrow=none;startFill=0;startSize=6;endArrow=classic;endFill=1;endSize=6;jettySize=auto;orthogonalLoop=1;strokeWidth=1;dashed=1;fontSize=14;rounded=0;exitX=1;exitY=0.5;exitDx=0;exitDy=0;entryX=0.642;entryY=0.992;entryDx=0;entryDy=0;entryPerimeter=0;" parent="1" source="dwLRcaL4dP4IxCvlZyWT-14" target="dwLRcaL4dP4IxCvlZyWT-11" edge="1">
          <mxGeometry width="60" height="60" relative="1" as="geometry">
            <mxPoint x="260" y="440" as="sourcePoint" />
            <mxPoint x="490" y="300" as="targetPoint" />
            <Array as="points">
              <mxPoint x="667" y="480" />
            </Array>
          </mxGeometry>
        </mxCell>
        <mxCell id="dwLRcaL4dP4IxCvlZyWT-21" value="&amp;lt;&amp;lt;includes&amp;gt;&amp;gt;" style="text;html=1;align=center;verticalAlign=middle;resizable=0;points=[];autosize=1;strokeColor=none;fillColor=none;" parent="1" vertex="1">
          <mxGeometry x="520" y="370" width="100" height="30" as="geometry" />
        </mxCell>
        <mxCell id="dwLRcaL4dP4IxCvlZyWT-22" value="&amp;lt;&amp;lt;includes&amp;gt;&amp;gt;" style="text;html=1;align=center;verticalAlign=middle;resizable=0;points=[];autosize=1;strokeColor=none;fillColor=none;" parent="1" vertex="1">
          <mxGeometry x="520" y="450" width="100" height="30" as="geometry" />
        </mxCell>
        <mxCell id="gGfTCoTzoRuYdXKmgfii-1" value="Check storage&lt;div&gt;availability&lt;/div&gt;" style="ellipse;whiteSpace=wrap;html=1;" parent="1" vertex="1">
          <mxGeometry x="490" y="570" width="90" height="70" as="geometry" />
        </mxCell>
        <mxCell id="gGfTCoTzoRuYdXKmgfii-6" value="Check order table list" style="ellipse;whiteSpace=wrap;html=1;" parent="1" vertex="1">
          <mxGeometry x="314" y="570" width="90" height="70" as="geometry" />
        </mxCell>
        <mxCell id="gGfTCoTzoRuYdXKmgfii-7" value="" style="html=1;labelBackgroundColor=#ffffff;startArrow=none;startFill=0;startSize=6;endArrow=classic;endFill=1;endSize=6;jettySize=auto;orthogonalLoop=1;strokeWidth=1;dashed=1;fontSize=14;rounded=0;exitX=0.316;exitY=1.006;exitDx=0;exitDy=0;entryX=0.733;entryY=0;entryDx=0;entryDy=0;entryPerimeter=0;exitPerimeter=0;" parent="1" source="dwLRcaL4dP4IxCvlZyWT-14" target="gGfTCoTzoRuYdXKmgfii-6" edge="1">
          <mxGeometry width="60" height="60" relative="1" as="geometry">
            <mxPoint x="310" y="600" as="sourcePoint" />
            <mxPoint x="370" y="540" as="targetPoint" />
          </mxGeometry>
        </mxCell>
        <mxCell id="gGfTCoTzoRuYdXKmgfii-8" value="" style="html=1;labelBackgroundColor=#ffffff;startArrow=none;startFill=0;startSize=6;endArrow=classic;endFill=1;endSize=6;jettySize=auto;orthogonalLoop=1;strokeWidth=1;dashed=1;fontSize=14;rounded=0;entryX=0.5;entryY=0;entryDx=0;entryDy=0;" parent="1" source="dwLRcaL4dP4IxCvlZyWT-14" target="gGfTCoTzoRuYdXKmgfii-1" edge="1">
          <mxGeometry width="60" height="60" relative="1" as="geometry">
            <mxPoint x="310" y="600" as="sourcePoint" />
            <mxPoint x="370" y="540" as="targetPoint" />
          </mxGeometry>
        </mxCell>
        <mxCell id="gGfTCoTzoRuYdXKmgfii-9" value="Check medication menu" style="ellipse;whiteSpace=wrap;html=1;" parent="1" vertex="1">
          <mxGeometry x="160" y="570" width="90" height="70" as="geometry" />
        </mxCell>
        <mxCell id="gGfTCoTzoRuYdXKmgfii-10" value="" style="html=1;labelBackgroundColor=#ffffff;startArrow=none;startFill=0;startSize=6;endArrow=classic;endFill=1;endSize=6;jettySize=auto;orthogonalLoop=1;strokeWidth=1;dashed=1;fontSize=14;rounded=0;exitX=0;exitY=1;exitDx=0;exitDy=0;entryX=0.441;entryY=-0.033;entryDx=0;entryDy=0;entryPerimeter=0;" parent="1" source="dwLRcaL4dP4IxCvlZyWT-13" target="gGfTCoTzoRuYdXKmgfii-9" edge="1">
          <mxGeometry width="60" height="60" relative="1" as="geometry">
            <mxPoint x="444" y="520" as="sourcePoint" />
            <mxPoint x="390" y="580" as="targetPoint" />
            <Array as="points">
              <mxPoint x="260" y="520" />
            </Array>
          </mxGeometry>
        </mxCell>
        <mxCell id="gGfTCoTzoRuYdXKmgfii-11" value="Logout" style="ellipse;whiteSpace=wrap;html=1;" parent="1" vertex="1">
          <mxGeometry x="530" y="40" width="120" height="80" as="geometry" />
        </mxCell>
        <mxCell id="gGfTCoTzoRuYdXKmgfii-12" value="" style="endArrow=none;html=1;rounded=0;exitX=1;exitY=0.3333333333333333;exitDx=0;exitDy=0;exitPerimeter=0;entryX=0;entryY=0.5;entryDx=0;entryDy=0;" parent="1" source="dwLRcaL4dP4IxCvlZyWT-1" target="gGfTCoTzoRuYdXKmgfii-11" edge="1">
          <mxGeometry width="50" height="50" relative="1" as="geometry">
            <mxPoint x="330" y="240" as="sourcePoint" />
            <mxPoint x="380" y="190" as="targetPoint" />
          </mxGeometry>
        </mxCell>
        <mxCell id="gGfTCoTzoRuYdXKmgfii-13" value="" style="html=1;labelBackgroundColor=#ffffff;startArrow=none;startFill=0;startSize=6;endArrow=classic;endFill=1;endSize=6;jettySize=auto;orthogonalLoop=1;strokeWidth=1;dashed=1;fontSize=14;rounded=0;exitX=1;exitY=0.5;exitDx=0;exitDy=0;entryX=0.5;entryY=0;entryDx=0;entryDy=0;" parent="1" source="gGfTCoTzoRuYdXKmgfii-11" target="dwLRcaL4dP4IxCvlZyWT-11" edge="1">
          <mxGeometry width="60" height="60" relative="1" as="geometry">
            <mxPoint x="320" y="320" as="sourcePoint" />
            <mxPoint x="380" y="260" as="targetPoint" />
          </mxGeometry>
        </mxCell>
        <mxCell id="gGfTCoTzoRuYdXKmgfii-14" value="&amp;lt;&amp;lt;includes&amp;gt;&amp;gt;" style="text;html=1;align=center;verticalAlign=middle;resizable=0;points=[];autosize=1;strokeColor=none;fillColor=none;rotation=90;" parent="1" vertex="1">
          <mxGeometry x="610" y="130" width="100" height="30" as="geometry" />
        </mxCell>
        <mxCell id="gGfTCoTzoRuYdXKmgfii-15" value="&amp;lt;&amp;lt;includes&amp;gt;&amp;gt;" style="text;html=1;align=center;verticalAlign=middle;resizable=0;points=[];autosize=1;strokeColor=none;fillColor=none;rotation=47.8;" parent="1" vertex="1">
          <mxGeometry x="460" y="510" width="100" height="30" as="geometry" />
        </mxCell>
        <mxCell id="gGfTCoTzoRuYdXKmgfii-16" value="&amp;lt;&amp;lt;includes&amp;gt;&amp;gt;" style="text;html=1;align=center;verticalAlign=middle;resizable=0;points=[];autosize=1;strokeColor=none;fillColor=none;rotation=-48.2;" parent="1" vertex="1">
          <mxGeometry x="350" y="520" width="100" height="30" as="geometry" />
        </mxCell>
        <mxCell id="gGfTCoTzoRuYdXKmgfii-17" value="&amp;lt;&amp;lt;includes&amp;gt;&amp;gt;" style="text;html=1;align=center;verticalAlign=middle;resizable=0;points=[];autosize=1;strokeColor=none;fillColor=none;rotation=-36.9;" parent="1" vertex="1">
          <mxGeometry x="200" y="500" width="100" height="30" as="geometry" />
        </mxCell>
        <mxCell id="xgJtENzkFKyXEKDkaRel-1" value="Admin" style="shape=umlActor;verticalLabelPosition=bottom;verticalAlign=top;html=1;outlineConnect=0;" parent="1" vertex="1">
          <mxGeometry x="-40" y="690" width="30" height="60" as="geometry" />
        </mxCell>
        <mxCell id="xgJtENzkFKyXEKDkaRel-2" value="" style="endArrow=classic;html=1;rounded=0;exitX=0.5;exitY=0;exitDx=0;exitDy=0;exitPerimeter=0;entryX=0;entryY=1;entryDx=0;entryDy=0;entryPerimeter=0;" parent="1" source="xgJtENzkFKyXEKDkaRel-1" target="dwLRcaL4dP4IxCvlZyWT-1" edge="1">
          <mxGeometry width="50" height="50" relative="1" as="geometry">
            <mxPoint x="220" y="530" as="sourcePoint" />
            <mxPoint x="270" y="480" as="targetPoint" />
          </mxGeometry>
        </mxCell>
        <mxCell id="xgJtENzkFKyXEKDkaRel-6" value="Manage medication menu" style="ellipse;whiteSpace=wrap;html=1;" parent="1" vertex="1">
          <mxGeometry x="240" y="690" width="120" height="80" as="geometry" />
        </mxCell>
        <mxCell id="xgJtENzkFKyXEKDkaRel-7" value="Manage medication storage" style="ellipse;whiteSpace=wrap;html=1;" parent="1" vertex="1">
          <mxGeometry x="240" y="810" width="120" height="80" as="geometry" />
        </mxCell>
        <mxCell id="xgJtENzkFKyXEKDkaRel-8" value="" style="html=1;labelBackgroundColor=#ffffff;startArrow=none;startFill=0;startSize=6;endArrow=classic;endFill=1;endSize=6;jettySize=auto;orthogonalLoop=1;strokeWidth=1;dashed=1;fontSize=14;rounded=0;exitX=1;exitY=0.5;exitDx=0;exitDy=0;entryX=0.75;entryY=0.938;entryDx=0;entryDy=0;entryPerimeter=0;" parent="1" source="xgJtENzkFKyXEKDkaRel-6" target="dwLRcaL4dP4IxCvlZyWT-11" edge="1">
          <mxGeometry width="60" height="60" relative="1" as="geometry">
            <mxPoint x="90" y="820" as="sourcePoint" />
            <mxPoint x="150" y="760" as="targetPoint" />
            <Array as="points">
              <mxPoint x="680" y="730" />
            </Array>
          </mxGeometry>
        </mxCell>
        <mxCell id="xgJtENzkFKyXEKDkaRel-9" value="" style="html=1;labelBackgroundColor=#ffffff;startArrow=none;startFill=0;startSize=6;endArrow=classic;endFill=1;endSize=6;jettySize=auto;orthogonalLoop=1;strokeWidth=1;dashed=1;fontSize=14;rounded=0;exitX=1;exitY=0.5;exitDx=0;exitDy=0;entryX=1;entryY=1;entryDx=0;entryDy=0;" parent="1" source="xgJtENzkFKyXEKDkaRel-7" target="dwLRcaL4dP4IxCvlZyWT-11" edge="1">
          <mxGeometry width="60" height="60" relative="1" as="geometry">
            <mxPoint x="90" y="950" as="sourcePoint" />
            <mxPoint x="150" y="890" as="targetPoint" />
            <Array as="points">
              <mxPoint x="692" y="850" />
            </Array>
          </mxGeometry>
        </mxCell>
        <mxCell id="xgJtENzkFKyXEKDkaRel-10" value="" style="endArrow=none;html=1;rounded=0;entryX=0;entryY=0.5;entryDx=0;entryDy=0;" parent="1" source="xgJtENzkFKyXEKDkaRel-1" target="xgJtENzkFKyXEKDkaRel-6" edge="1">
          <mxGeometry width="50" height="50" relative="1" as="geometry">
            <mxPoint x="130" y="820" as="sourcePoint" />
            <mxPoint x="180" y="770" as="targetPoint" />
          </mxGeometry>
        </mxCell>
        <mxCell id="xgJtENzkFKyXEKDkaRel-11" value="" style="endArrow=none;html=1;rounded=0;exitX=1;exitY=1;exitDx=0;exitDy=0;exitPerimeter=0;entryX=0;entryY=0.5;entryDx=0;entryDy=0;" parent="1" source="xgJtENzkFKyXEKDkaRel-1" target="xgJtENzkFKyXEKDkaRel-7" edge="1">
          <mxGeometry width="50" height="50" relative="1" as="geometry">
            <mxPoint x="130" y="820" as="sourcePoint" />
            <mxPoint x="180" y="770" as="targetPoint" />
          </mxGeometry>
        </mxCell>
        <mxCell id="xgJtENzkFKyXEKDkaRel-12" value="Add drug&lt;span style=&quot;color: rgba(0, 0, 0, 0); font-family: monospace; font-size: 0px; text-align: start; text-wrap-mode: nowrap;&quot;&gt;%3CmxGraphModel%3E%3Croot%3E%3CmxCell%20id%3D%220%22%2F%3E%3CmxCell%20id%3D%221%22%20parent%3D%220%22%2F%3E%3CmxCell%20id%3D%222%22%20value%3D%22Manage%20medication%20menu%22%20style%3D%22ellipse%3BwhiteSpace%3Dwrap%3Bhtml%3D1%3B%22%20vertex%3D%221%22%20parent%3D%221%22%3E%3CmxGeometry%20x%3D%22240%22%20y%3D%22690%22%20width%3D%22120%22%20height%3D%2280%22%20as%3D%22geometry%22%2F%3E%3C%2FmxCell%3E%3C%2Froot%3E%3C%2FmxGraphModel%3E&lt;/span&gt;" style="ellipse;whiteSpace=wrap;html=1;" parent="1" vertex="1">
          <mxGeometry x="140" y="1010" width="120" height="80" as="geometry" />
        </mxCell>
        <mxCell id="xgJtENzkFKyXEKDkaRel-13" value="Update drug" style="ellipse;whiteSpace=wrap;html=1;" parent="1" vertex="1">
          <mxGeometry x="294" y="1010" width="120" height="80" as="geometry" />
        </mxCell>
        <mxCell id="xgJtENzkFKyXEKDkaRel-14" value="Delete drug" style="ellipse;whiteSpace=wrap;html=1;" parent="1" vertex="1">
          <mxGeometry x="450" y="1010" width="120" height="80" as="geometry" />
        </mxCell>
        <mxCell id="xgJtENzkFKyXEKDkaRel-15" value="" style="html=1;labelBackgroundColor=#ffffff;startArrow=none;startFill=0;startSize=6;endArrow=classic;endFill=1;endSize=6;jettySize=auto;orthogonalLoop=1;strokeWidth=1;dashed=1;fontSize=14;rounded=0;exitX=0.5;exitY=0;exitDx=0;exitDy=0;entryX=0;entryY=1;entryDx=0;entryDy=0;" parent="1" source="xgJtENzkFKyXEKDkaRel-12" target="xgJtENzkFKyXEKDkaRel-7" edge="1">
          <mxGeometry width="60" height="60" relative="1" as="geometry">
            <mxPoint x="120" y="930" as="sourcePoint" />
            <mxPoint x="180" y="870" as="targetPoint" />
          </mxGeometry>
        </mxCell>
        <mxCell id="xgJtENzkFKyXEKDkaRel-16" value="" style="html=1;labelBackgroundColor=#ffffff;startArrow=none;startFill=0;startSize=6;endArrow=classic;endFill=1;endSize=6;jettySize=auto;orthogonalLoop=1;strokeWidth=1;dashed=1;fontSize=14;rounded=0;exitX=0.5;exitY=0;exitDx=0;exitDy=0;entryX=0.56;entryY=1.034;entryDx=0;entryDy=0;entryPerimeter=0;" parent="1" source="xgJtENzkFKyXEKDkaRel-13" target="xgJtENzkFKyXEKDkaRel-7" edge="1">
          <mxGeometry width="60" height="60" relative="1" as="geometry">
            <mxPoint x="210" y="1020" as="sourcePoint" />
            <mxPoint x="303" y="904" as="targetPoint" />
          </mxGeometry>
        </mxCell>
        <mxCell id="xgJtENzkFKyXEKDkaRel-17" value="" style="html=1;labelBackgroundColor=#ffffff;startArrow=none;startFill=0;startSize=6;endArrow=classic;endFill=1;endSize=6;jettySize=auto;orthogonalLoop=1;strokeWidth=1;dashed=1;fontSize=14;rounded=0;exitX=0.5;exitY=0;exitDx=0;exitDy=0;" parent="1" source="xgJtENzkFKyXEKDkaRel-14" target="xgJtENzkFKyXEKDkaRel-7" edge="1">
          <mxGeometry width="60" height="60" relative="1" as="geometry">
            <mxPoint x="364" y="1020" as="sourcePoint" />
            <mxPoint x="317" y="903" as="targetPoint" />
          </mxGeometry>
        </mxCell>
        <mxCell id="xgJtENzkFKyXEKDkaRel-18" value="" style="html=1;labelBackgroundColor=#ffffff;startArrow=none;startFill=0;startSize=6;endArrow=classic;endFill=1;endSize=6;jettySize=auto;orthogonalLoop=1;strokeWidth=1;dashed=1;fontSize=14;rounded=0;exitX=0.5;exitY=0;exitDx=0;exitDy=0;entryX=0;entryY=1;entryDx=0;entryDy=0;" parent="1" source="xgJtENzkFKyXEKDkaRel-12" target="xgJtENzkFKyXEKDkaRel-6" edge="1">
          <mxGeometry width="60" height="60" relative="1" as="geometry">
            <mxPoint x="210" y="1020" as="sourcePoint" />
            <mxPoint x="268" y="888" as="targetPoint" />
          </mxGeometry>
        </mxCell>
        <mxCell id="xgJtENzkFKyXEKDkaRel-19" value="" style="html=1;labelBackgroundColor=#ffffff;startArrow=none;startFill=0;startSize=6;endArrow=classic;endFill=1;endSize=6;jettySize=auto;orthogonalLoop=1;strokeWidth=1;dashed=1;fontSize=14;rounded=0;entryX=0.5;entryY=1;entryDx=0;entryDy=0;" parent="1" target="xgJtENzkFKyXEKDkaRel-6" edge="1">
          <mxGeometry width="60" height="60" relative="1" as="geometry">
            <mxPoint x="360" y="1010" as="sourcePoint" />
            <mxPoint x="317" y="903" as="targetPoint" />
          </mxGeometry>
        </mxCell>
        <mxCell id="xgJtENzkFKyXEKDkaRel-20" value="" style="html=1;labelBackgroundColor=#ffffff;startArrow=none;startFill=0;startSize=6;endArrow=classic;endFill=1;endSize=6;jettySize=auto;orthogonalLoop=1;strokeWidth=1;dashed=1;fontSize=14;rounded=0;entryX=1;entryY=1;entryDx=0;entryDy=0;" parent="1" target="xgJtENzkFKyXEKDkaRel-6" edge="1">
          <mxGeometry width="60" height="60" relative="1" as="geometry">
            <mxPoint x="510" y="1010" as="sourcePoint" />
            <mxPoint x="349" y="890" as="targetPoint" />
          </mxGeometry>
        </mxCell>
        <mxCell id="xgJtENzkFKyXEKDkaRel-21" value="&amp;lt;&amp;lt;extends&amp;gt;" style="text;html=1;align=center;verticalAlign=middle;resizable=0;points=[];autosize=1;strokeColor=none;fillColor=none;" parent="1" vertex="1">
          <mxGeometry x="290" y="950" width="90" height="30" as="geometry" />
        </mxCell>
        <mxCell id="xgJtENzkFKyXEKDkaRel-23" value="&amp;lt;&amp;lt;extends&amp;gt;" style="text;html=1;align=center;verticalAlign=middle;resizable=0;points=[];autosize=1;strokeColor=none;fillColor=none;" parent="1" vertex="1">
          <mxGeometry x="160" y="940" width="90" height="30" as="geometry" />
        </mxCell>
        <mxCell id="xgJtENzkFKyXEKDkaRel-24" value="&amp;lt;&amp;lt;extends&amp;gt;" style="text;html=1;align=center;verticalAlign=middle;resizable=0;points=[];autosize=1;strokeColor=none;fillColor=none;" parent="1" vertex="1">
          <mxGeometry x="414" y="950" width="90" height="30" as="geometry" />
        </mxCell>
        <mxCell id="EnVxNTTX0JdRQZrTppro-1" value="Manages accounts" style="ellipse;whiteSpace=wrap;html=1;" parent="1" vertex="1">
          <mxGeometry x="120" y="1169" width="120" height="80" as="geometry" />
        </mxCell>
        <mxCell id="EnVxNTTX0JdRQZrTppro-2" value="" style="endArrow=none;html=1;rounded=0;" parent="1" source="xgJtENzkFKyXEKDkaRel-1" target="EnVxNTTX0JdRQZrTppro-1" edge="1">
          <mxGeometry width="50" height="50" relative="1" as="geometry">
            <mxPoint x="310" y="950" as="sourcePoint" />
            <mxPoint x="360" y="900" as="targetPoint" />
          </mxGeometry>
        </mxCell>
        <mxCell id="EnVxNTTX0JdRQZrTppro-3" value="Register account" style="ellipse;whiteSpace=wrap;html=1;" parent="1" vertex="1">
          <mxGeometry x="180" y="1340" width="120" height="80" as="geometry" />
        </mxCell>
        <mxCell id="EnVxNTTX0JdRQZrTppro-4" value="Delete account" style="ellipse;whiteSpace=wrap;html=1;" parent="1" vertex="1">
          <mxGeometry x="340" y="1340" width="120" height="80" as="geometry" />
        </mxCell>
        <mxCell id="EnVxNTTX0JdRQZrTppro-5" value="" style="html=1;labelBackgroundColor=#ffffff;startArrow=none;startFill=0;startSize=6;endArrow=classic;endFill=1;endSize=6;jettySize=auto;orthogonalLoop=1;strokeWidth=1;dashed=1;fontSize=14;rounded=0;exitX=0.585;exitY=0.01;exitDx=0;exitDy=0;exitPerimeter=0;entryX=0.672;entryY=1.018;entryDx=0;entryDy=0;entryPerimeter=0;" parent="1" source="EnVxNTTX0JdRQZrTppro-3" target="EnVxNTTX0JdRQZrTppro-1" edge="1">
          <mxGeometry width="60" height="60" relative="1" as="geometry">
            <mxPoint x="10" y="1000" as="sourcePoint" />
            <mxPoint x="70" y="940" as="targetPoint" />
          </mxGeometry>
        </mxCell>
        <mxCell id="EnVxNTTX0JdRQZrTppro-6" value="" style="html=1;labelBackgroundColor=#ffffff;startArrow=none;startFill=0;startSize=6;endArrow=classic;endFill=1;endSize=6;jettySize=auto;orthogonalLoop=1;strokeWidth=1;dashed=1;fontSize=14;rounded=0;exitX=0.412;exitY=0.06;exitDx=0;exitDy=0;exitPerimeter=0;entryX=1;entryY=1;entryDx=0;entryDy=0;" parent="1" source="EnVxNTTX0JdRQZrTppro-4" target="EnVxNTTX0JdRQZrTppro-1" edge="1">
          <mxGeometry width="60" height="60" relative="1" as="geometry">
            <mxPoint x="-100" y="1081" as="sourcePoint" />
            <mxPoint x="-44" y="1017" as="targetPoint" />
          </mxGeometry>
        </mxCell>
        <mxCell id="EnVxNTTX0JdRQZrTppro-7" value="&amp;lt;&amp;lt;extends&amp;gt;" style="text;html=1;align=center;verticalAlign=middle;resizable=0;points=[];autosize=1;strokeColor=none;fillColor=none;rotation=-55;" parent="1" vertex="1">
          <mxGeometry x="70" y="1280" width="90" height="30" as="geometry" />
        </mxCell>
        <mxCell id="EnVxNTTX0JdRQZrTppro-8" value="&amp;lt;&amp;lt;extends&amp;gt;" style="text;html=1;align=center;verticalAlign=middle;resizable=0;points=[];autosize=1;strokeColor=none;fillColor=none;rotation=60;" parent="1" vertex="1">
          <mxGeometry x="204" y="1290" width="90" height="30" as="geometry" />
        </mxCell>
        <mxCell id="EnVxNTTX0JdRQZrTppro-9" value="Register account" style="ellipse;whiteSpace=wrap;html=1;" parent="1" vertex="1">
          <mxGeometry x="30" y="1340" width="120" height="80" as="geometry" />
        </mxCell>
        <mxCell id="EnVxNTTX0JdRQZrTppro-10" value="&amp;lt;&amp;lt;extends&amp;gt;" style="text;html=1;align=center;verticalAlign=middle;resizable=0;points=[];autosize=1;strokeColor=none;fillColor=none;rotation=23;" parent="1" vertex="1">
          <mxGeometry x="290" y="1280" width="90" height="30" as="geometry" />
        </mxCell>
        <mxCell id="EnVxNTTX0JdRQZrTppro-11" value="" style="html=1;labelBackgroundColor=#ffffff;startArrow=none;startFill=0;startSize=6;endArrow=classic;endFill=1;endSize=6;jettySize=auto;orthogonalLoop=1;strokeWidth=1;dashed=1;fontSize=14;rounded=0;exitX=0.667;exitY=0;exitDx=0;exitDy=0;exitPerimeter=0;" parent="1" source="EnVxNTTX0JdRQZrTppro-9" target="EnVxNTTX0JdRQZrTppro-1" edge="1">
          <mxGeometry width="60" height="60" relative="1" as="geometry">
            <mxPoint x="79" y="1085" as="sourcePoint" />
            <mxPoint x="9" y="1022" as="targetPoint" />
          </mxGeometry>
        </mxCell>
        <mxCell id="kcgndKfQ8WLu2kqlbhaT-1" value="" style="html=1;labelBackgroundColor=#ffffff;startArrow=none;startFill=0;startSize=6;endArrow=classic;endFill=1;endSize=6;jettySize=auto;orthogonalLoop=1;strokeWidth=1;dashed=1;fontSize=14;rounded=0;exitX=1;exitY=0.5;exitDx=0;exitDy=0;entryX=0.979;entryY=0.644;entryDx=0;entryDy=0;entryPerimeter=0;" parent="1" source="EnVxNTTX0JdRQZrTppro-1" target="dwLRcaL4dP4IxCvlZyWT-11" edge="1">
          <mxGeometry width="60" height="60" relative="1" as="geometry">
            <mxPoint x="180" y="770" as="sourcePoint" />
            <mxPoint x="240" y="710" as="targetPoint" />
            <Array as="points">
              <mxPoint x="707" y="1209" />
            </Array>
          </mxGeometry>
        </mxCell>
        <mxCell id="kcgndKfQ8WLu2kqlbhaT-2" value="&amp;lt;&amp;lt;includes&amp;gt;&amp;gt;" style="text;html=1;align=center;verticalAlign=middle;resizable=0;points=[];autosize=1;strokeColor=none;fillColor=none;" parent="1" vertex="1">
          <mxGeometry x="520" y="940" width="100" height="30" as="geometry" />
        </mxCell>
        <mxCell id="kcgndKfQ8WLu2kqlbhaT-3" value="&amp;lt;&amp;lt;includes&amp;gt;&amp;gt;" style="text;html=1;align=center;verticalAlign=middle;resizable=0;points=[];autosize=1;strokeColor=none;fillColor=none;" parent="1" vertex="1">
          <mxGeometry x="520" y="690" width="100" height="30" as="geometry" />
        </mxCell>
      </root>
    </mxGraphModel>
  </diagram>
</mxfile>
